<?xml version="1.0" encoding="UTF-8"?>
<svg xmlns="http://www.w3.org/2000/svg" viewBox="0 0 1000 1000" role="img" aria-label="Mapa do Brasil por estados">
  <g id="br-estados">
    <path class="br-state" data-uf="AC" data-name="Acre" d="M 24.22,324.25 L 109.48,349.60 L 195.79,390.89 L 200.88,392.90 L 153.26,422.76 L 102.28,420.07 L 102.66,382.82 L 87.01,395.88 L 64.84,394.82 L 59.65,381.19 L 39.11,380.61 L 46.59,372.26 L 31.71,353.63 L 25.95,343.26 L 25.86,340.10 L 20.10,335.78 L 20.00,329.63 L 24.70,329.63 L 24.22,324.25 Z">
      <title>Acre (AC)</title>
    </path>
    <path class="br-state" data-uf="AL" data-name="Alagoas" d="M 972.61,367.84 L 966.94,376.87 L 957.34,387.62 L 949.76,397.51 L 943.71,402.79 L 943.80,403.94 L 941.31,407.59 L 939.96,405.29 L 937.18,405.57 L 937.08,403.37 L 935.36,401.64 L 933.92,402.41 L 927.77,397.70 L 927.58,395.59 L 902.14,383.11 L 896.47,378.69 L 907.13,367.17 L 927.77,380.32 L 929.11,377.54 L 934.11,377.64 L 935.93,379.46 L 951.97,367.07 L 958.21,368.71 L 962.62,366.31 L 972.61,367.84 Z">
      <title>Alagoas (AL)</title>
    </path>
    <path class="br-state" data-uf="AM" data-name="Amazonas" d="M 279.51,95.08 L 295.64,103.82 L 307.16,157.29 L 301.31,168.24 L 326.27,187.82 L 323.68,169.49 L 334.05,160.94 L 345.76,170.93 L 355.46,165.93 L 352.67,161.61 L 361.31,143.18 L 389.54,142.51 L 390.21,159.21 L 403.75,177.36 L 451.95,204.63 L 401.64,316.67 L 407.59,329.34 L 401.54,365.44 L 324.83,366.02 L 310.05,365.25 L 292.76,345.76 L 275.19,345.86 L 257.82,368.80 L 242.45,369.09 L 242.65,381.67 L 208.08,381.19 L 195.79,390.89 L 109.48,349.60 L 24.22,324.25 L 26.82,314.94 L 40.35,308.51 L 37.19,297.95 L 48.51,275.00 L 81.16,257.82 L 118.41,255.13 L 131.85,174.00 L 116.78,153.65 L 116.39,134.83 L 138.28,134.35 L 138.19,123.31 L 121.39,123.50 L 121.39,106.89 L 161.33,106.60 L 179.66,95.85 L 188.40,104.30 L 188.88,120.52 L 226.80,133.29 L 279.51,95.08 Z">
      <title>Amazonas (AM)</title>
    </path>
    <path class="br-state" data-uf="AP" data-name="Amapá" d="M 604.41,133.20 L 565.72,167.18 L 566.97,176.88 L 550.36,178.13 L 519.25,118.41 L 501.20,106.41 L 491.12,106.41 L 487.85,88.45 L 493.23,88.17 L 498.61,95.27 L 508.30,95.85 L 514.07,91.24 L 525.97,91.53 L 528.47,95.37 L 537.30,95.37 L 574.07,39.49 L 588.18,92.30 L 611.32,109.38 L 610.75,124.17 L 604.41,133.20 Z">
      <title>Amapá (AP)</title>
    </path>
    <path class="br-state" data-uf="BA" data-name="Bahia" d="M 896.47,378.69 L 902.14,383.11 L 902.52,394.44 L 906.46,395.11 L 908.66,403.65 L 906.07,404.81 L 906.07,412.78 L 901.66,414.12 L 900.89,412.68 L 897.14,412.87 L 895.51,415.56 L 901.85,428.62 L 915.10,435.24 L 892.92,469.80 L 888.12,466.64 L 879.00,475.18 L 876.12,512.53 L 881.01,539.70 L 870.17,574.26 L 874.10,584.25 L 870.84,589.24 L 864.98,591.83 L 861.14,600.57 L 846.16,590.78 L 848.08,585.88 L 837.71,576.86 L 840.79,565.14 L 846.45,564.28 L 853.94,543.06 L 749.67,499.66 L 704.93,523.95 L 705.22,514.93 L 699.75,468.17 L 691.97,427.85 L 710.41,401.64 L 724.33,415.66 L 751.59,411.05 L 763.02,396.26 L 758.51,384.36 L 767.53,377.35 L 785.20,385.99 L 798.06,377.06 L 806.89,377.06 L 822.16,362.27 L 834.93,374.37 L 834.74,381.09 L 843.28,381.28 L 867.38,359.01 L 885.62,370.34 L 889.08,367.07 L 894.74,371.68 L 893.11,374.56 L 896.47,378.69 Z">
      <title>Bahia (BA)</title>
    </path>
    <path class="br-state" data-uf="CE" data-name="Ceará" d="M 919.13,267.80 L 910.97,271.07 L 888.02,305.72 L 883.22,320.32 L 888.79,328.67 L 884.57,340.00 L 874.29,340.00 L 860.66,329.73 L 839.54,331.26 L 843.38,315.90 L 835.89,312.83 L 827.44,269.91 L 820.53,220.95 L 808.24,216.15 L 820.53,220.95 L 852.50,219.12 L 890.42,240.25 L 904.54,255.90 L 919.03,263.96 L 919.13,267.80 Z">
      <title>Ceará (CE)</title>
    </path>
    <path class="br-state" data-uf="DF" data-name="Distrito Federal" d="M 673.73,544.31 L 650.02,544.31 L 649.92,530.96 L 673.73,531.06 L 673.73,544.31 Z">
      <title>Distrito Federal (DF)</title>
    </path>
    <path class="br-state" data-uf="ES" data-name="Espírito Santo" d="M 830.23,673.83 L 810.83,669.22 L 810.93,662.11 L 806.70,660.96 L 809.10,646.65 L 818.90,646.27 L 830.90,623.52 L 826.96,618.33 L 829.94,611.32 L 823.50,601.05 L 829.17,595.96 L 834.07,596.15 L 837.91,590.87 L 846.16,590.78 L 861.14,600.57 L 857.78,611.52 L 860.47,625.15 L 857.78,632.54 L 851.06,637.25 L 847.41,648.09 L 839.15,662.40 L 833.87,662.69 L 830.23,673.83 Z">
      <title>Espírito Santo (ES)</title>
    </path>
    <path class="br-state" data-uf="GO" data-name="Goiás" d="M 593.56,464.24 L 624.19,473.55 L 699.75,468.17 L 705.22,514.93 L 685.25,518.10 L 686.02,539.99 L 673.73,544.31 L 673.73,531.06 L 649.92,530.96 L 650.02,544.31 L 673.73,544.31 L 674.40,593.75 L 660.10,605.37 L 650.50,600.76 L 631.87,600.95 L 622.46,609.02 L 600.19,609.59 L 584.73,628.60 L 538.26,607.77 L 532.21,592.22 L 528.18,583.38 L 534.04,563.70 L 552.18,540.37 L 562.84,538.64 L 568.21,520.21 L 580.89,518.10 L 593.56,464.24 Z">
      <title>Goiás (GO)</title>
    </path>
    <path class="br-state" data-uf="MA" data-name="Maranhão" d="M 643.49,276.35 L 667.87,261.18 L 684.19,237.08 L 704.07,174.77 L 736.04,186.77 L 744.49,207.70 L 754.76,211.16 L 765.99,203.95 L 791.53,216.53 L 808.33,216.34 L 779.72,253.50 L 781.36,313.41 L 767.72,318.88 L 764.07,312.83 L 752.75,316.96 L 740.84,329.53 L 719.24,338.08 L 706.85,367.27 L 710.41,401.64 L 696.20,398.18 L 691.59,388.10 L 680.26,370.92 L 686.21,355.17 L 694.08,353.92 L 692.74,343.07 L 680.26,345.95 L 664.80,327.33 L 672.29,303.32 L 669.02,284.12 L 643.49,276.35 Z">
      <title>Maranhão (MA)</title>
    </path>
    <path class="br-state" data-uf="MG" data-name="Minas Gerais" d="M 853.94,543.06 L 846.45,564.28 L 840.79,565.14 L 837.71,576.86 L 848.08,585.88 L 846.16,590.78 L 837.91,590.87 L 834.07,596.15 L 829.17,595.96 L 823.50,601.05 L 829.94,611.32 L 826.96,618.33 L 830.90,623.52 L 818.90,646.27 L 809.10,646.65 L 806.70,660.96 L 804.88,665.28 L 801.61,665.18 L 795.09,681.70 L 796.43,683.91 L 777.32,693.03 L 770.89,690.24 L 736.52,700.80 L 697.44,713.09 L 670.27,641.28 L 584.06,639.65 L 584.73,628.60 L 600.19,609.59 L 622.46,609.02 L 631.87,600.95 L 650.50,600.76 L 660.10,605.37 L 674.40,593.75 L 673.73,544.31 L 686.02,539.99 L 685.25,518.10 L 705.22,514.93 L 704.93,523.95 L 749.77,499.95 L 853.94,543.06 Z">
      <title>Minas Gerais (MG)</title>
    </path>
    <path class="br-state" data-uf="MS" data-name="Mato Grosso do Sul" d="M 532.21,592.22 L 538.26,607.77 L 584.73,628.60 L 584.06,639.65 L 547.57,695.14 L 531.92,705.22 L 519.83,713.77 L 510.90,726.15 L 503.70,740.94 L 492.85,737.58 L 476.72,739.98 L 464.81,697.44 L 412.87,695.91 L 413.54,665.38 L 405.57,640.51 L 424.68,590.49 L 443.79,575.90 L 461.64,571.67 L 482.67,583.67 L 507.15,583.10 L 517.43,572.34 L 517.33,583.58 L 508.11,592.31 L 532.21,592.22 Z">
      <title>Mato Grosso do Sul (MS)</title>
    </path>
    <path class="br-state" data-uf="MT" data-name="Mato Grosso" d="M 346.14,486.41 L 366.59,452.04 L 366.79,420.17 L 324.64,419.69 L 324.83,366.02 L 401.54,365.44 L 407.59,329.34 L 442.15,380.71 L 602.30,391.46 L 589.72,430.73 L 593.56,464.24 L 580.89,518.10 L 568.21,520.21 L 562.84,538.64 L 552.18,540.37 L 534.04,563.70 L 528.18,583.38 L 532.21,592.22 L 508.11,592.31 L 517.33,583.58 L 517.43,572.34 L 507.15,583.10 L 482.67,583.67 L 461.64,571.67 L 443.79,575.90 L 424.68,590.49 L 403.85,574.26 L 403.85,549.59 L 358.43,549.68 L 358.15,530.87 L 348.54,520.11 L 356.61,520.50 L 356.13,508.59 L 352.96,494.29 L 346.14,486.41 Z">
      <title>Mato Grosso (MT)</title>
    </path>
    <path class="br-state" data-uf="PA" data-name="Pará" d="M 704.07,174.77 L 684.19,237.08 L 667.87,261.18 L 643.49,276.35 L 638.40,280.95 L 652.13,286.62 L 638.78,314.75 L 631.49,316.67 L 622.94,336.06 L 628.32,341.73 L 602.30,391.46 L 442.15,380.71 L 407.59,329.34 L 401.64,316.67 L 451.95,204.63 L 403.75,177.36 L 390.21,159.21 L 389.54,142.51 L 390.12,117.64 L 432.75,102.09 L 460.30,101.13 L 459.24,88.26 L 487.85,88.45 L 491.12,106.41 L 501.20,106.41 L 519.25,118.41 L 550.36,178.13 L 566.97,176.88 L 565.72,167.18 L 604.41,133.20 L 608.25,141.26 L 617.47,140.49 L 646.08,155.57 L 646.56,161.61 L 658.08,165.65 L 665.47,159.89 L 704.07,174.77 Z">
      <title>Pará (PA)</title>
    </path>
    <path class="br-state" data-uf="PB" data-name="Paraíba" d="M 976.26,308.89 L 980.00,335.01 L 973.95,331.26 L 963.87,332.90 L 962.43,337.60 L 951.01,341.92 L 945.05,340.96 L 936.70,344.32 L 936.03,349.60 L 926.71,353.83 L 918.65,344.51 L 927.48,332.80 L 919.80,328.09 L 902.81,339.42 L 884.57,340.00 L 888.79,328.67 L 883.22,320.32 L 888.02,305.72 L 899.35,308.99 L 920.09,296.60 L 922.39,300.35 L 914.81,313.60 L 933.82,321.09 L 941.79,308.51 L 976.26,308.89 Z">
      <title>Paraíba (PB)</title>
    </path>
    <path class="br-state" data-uf="PE" data-name="Pernambuco" d="M 980.00,335.01 L 972.61,367.84 L 962.62,366.31 L 958.21,368.71 L 951.97,367.07 L 935.93,379.46 L 934.11,377.64 L 929.11,377.54 L 927.77,380.32 L 907.13,367.17 L 896.47,378.69 L 893.11,374.56 L 894.74,371.68 L 889.08,367.07 L 885.62,370.34 L 867.38,359.01 L 843.28,381.28 L 834.74,381.09 L 834.93,374.37 L 822.16,362.27 L 839.54,347.68 L 839.44,341.73 L 835.31,340.19 L 835.41,332.99 L 839.54,331.26 L 860.66,329.73 L 874.29,340.00 L 884.57,340.00 L 902.81,339.42 L 919.80,328.09 L 927.48,332.80 L 918.65,344.51 L 926.71,353.83 L 936.03,349.60 L 936.70,344.32 L 945.05,340.96 L 951.01,341.92 L 962.43,337.60 L 963.87,332.90 L 973.95,331.26 L 980.00,335.01 Z">
      <title>Pernambuco (PE)</title>
    </path>
    <path class="br-state" data-uf="PI" data-name="Piauí" d="M 808.33,216.34 L 820.53,220.95 L 827.44,269.91 L 835.89,312.83 L 843.38,315.90 L 839.54,331.26 L 835.41,332.99 L 835.31,340.19 L 839.44,341.73 L 839.54,347.68 L 822.16,362.27 L 806.89,377.06 L 798.06,377.06 L 785.20,385.99 L 767.53,377.35 L 758.51,384.36 L 763.02,396.26 L 751.59,411.05 L 724.33,415.66 L 710.41,401.64 L 706.85,367.27 L 719.24,338.08 L 740.84,329.53 L 752.75,316.96 L 764.07,312.83 L 767.72,318.88 L 781.36,313.41 L 779.72,253.50 L 808.33,216.34 Z">
      <title>Piauí (PI)</title>
    </path>
    <path class="br-state" data-uf="PR" data-name="Paraná" d="M 531.92,705.22 L 613.63,716.84 L 627.36,754.09 L 656.26,770.41 L 642.14,788.84 L 628.12,788.84 L 619.48,794.41 L 610.17,789.80 L 593.47,790.00 L 590.11,794.89 L 576.86,796.72 L 573.98,804.88 L 518.58,795.76 L 510.99,780.49 L 495.34,779.34 L 503.70,740.94 L 510.90,726.15 L 519.83,713.77 L 531.92,705.22 Z">
      <title>Paraná (PR)</title>
    </path>
    <path class="br-state" data-uf="RJ" data-name="Rio de Janeiro" d="M 736.71,724.33 L 733.74,715.59 L 749.38,709.92 L 747.37,705.12 L 740.74,707.24 L 736.52,700.80 L 770.89,690.24 L 777.32,693.03 L 796.43,683.91 L 795.09,681.70 L 801.61,665.18 L 804.88,665.28 L 806.70,660.96 L 810.93,662.11 L 810.83,669.22 L 830.23,673.83 L 826.77,679.11 L 828.98,690.63 L 822.93,694.08 L 814.77,696.77 L 804.21,705.60 L 807.09,708.77 L 803.25,714.15 L 778.86,714.73 L 765.13,716.84 L 758.70,713.57 L 740.17,720.01 L 741.22,722.98 L 736.71,724.33 Z">
      <title>Rio de Janeiro (RJ)</title>
    </path>
    <path class="br-state" data-uf="RN" data-name="Rio Grande do Norte" d="M 919.13,267.80 L 934.59,274.33 L 952.06,273.47 L 966.65,277.69 L 976.26,308.89 L 941.79,308.51 L 933.82,321.09 L 914.81,313.60 L 922.39,300.35 L 920.09,296.60 L 899.35,308.99 L 888.02,305.72 L 910.97,271.07 L 919.13,267.80 Z">
      <title>Rio Grande do Norte (RN)</title>
    </path>
    <path class="br-state" data-uf="RO" data-name="Rondônia" d="M 195.79,390.89 L 208.08,381.19 L 242.65,381.67 L 242.45,369.09 L 257.82,368.80 L 275.19,345.86 L 292.76,345.76 L 310.05,365.25 L 324.83,366.02 L 324.64,419.69 L 366.79,420.17 L 366.59,452.04 L 346.14,486.41 L 337.31,481.71 L 316.96,482.48 L 309.37,473.84 L 269.14,454.92 L 259.45,458.67 L 232.47,437.64 L 232.57,393.09 L 200.88,392.90 L 195.79,390.89 Z">
      <title>Rondônia (RO)</title>
    </path>
    <path class="br-state" data-uf="RR" data-name="Roraima" d="M 390.12,117.64 L 389.54,142.51 L 361.31,143.18 L 352.67,161.61 L 355.46,165.93 L 345.76,170.93 L 334.05,160.94 L 323.68,169.49 L 326.27,187.82 L 301.31,168.24 L 307.16,157.29 L 295.64,103.82 L 279.51,95.08 L 279.13,89.80 L 264.82,89.89 L 259.35,61.28 L 243.70,45.25 L 245.91,43.43 L 250.62,47.55 L 261.85,48.23 L 265.02,53.03 L 284.60,52.16 L 289.50,60.32 L 296.12,58.40 L 293.34,51.49 L 305.53,46.50 L 312.54,48.32 L 344.99,31.52 L 344.70,20.38 L 362.27,20.00 L 362.85,37.76 L 371.78,41.22 L 372.16,55.62 L 363.52,75.40 L 364.00,91.05 L 368.90,92.78 L 368.99,103.14 L 381.38,115.63 L 390.12,117.64 Z">
      <title>Roraima (RR)</title>
    </path>
    <path class="br-state" data-uf="RS" data-name="Rio Grande do Sul" d="M 513.78,818.13 L 564.47,824.18 L 593.85,847.60 L 611.52,852.21 L 607.19,864.98 L 613.72,870.74 L 600.76,899.83 L 587.99,916.92 L 578.49,925.27 L 557.17,940.44 L 557.08,933.05 L 561.78,933.05 L 573.30,924.89 L 591.07,900.41 L 578.68,898.01 L 566.87,918.36 L 552.28,932.96 L 556.12,935.16 L 556.12,940.92 L 550.45,947.45 L 545.46,961.85 L 540.08,968.48 L 525.01,980.00 L 521.17,976.74 L 524.05,968.09 L 533.84,956.29 L 539.12,959.45 L 544.21,948.89 L 539.89,946.11 L 529.43,952.73 L 472.40,910.01 L 461.45,914.91 L 426.60,888.98 L 469.61,841.84 L 513.78,818.13 Z">
      <title>Rio Grande do Sul (RS)</title>
    </path>
    <path class="br-state" data-uf="SC" data-name="Santa Catarina" d="M 518.58,795.76 L 573.98,804.88 L 576.86,796.72 L 590.11,794.89 L 593.47,790.00 L 610.17,789.80 L 619.48,794.41 L 628.12,788.84 L 642.14,788.84 L 645.02,795.09 L 640.32,806.80 L 642.72,822.83 L 642.53,834.93 L 638.59,851.06 L 613.72,870.74 L 607.19,864.98 L 611.52,852.21 L 593.85,847.60 L 564.47,824.18 L 513.78,818.13 L 518.58,795.76 Z">
      <title>Santa Catarina (SC)</title>
    </path>
    <path class="br-state" data-uf="SE" data-name="Sergipe" d="M 902.14,383.11 L 927.58,395.59 L 927.77,397.70 L 933.92,402.41 L 935.36,401.64 L 937.08,403.37 L 937.18,405.57 L 939.96,405.29 L 941.31,407.59 L 940.64,408.65 L 937.95,408.65 L 928.73,414.98 L 915.10,435.24 L 901.85,428.62 L 895.51,415.56 L 897.14,412.87 L 900.89,412.68 L 901.66,414.12 L 906.07,412.78 L 906.07,404.81 L 908.66,403.65 L 906.46,395.11 L 902.52,394.44 L 902.14,383.11 Z">
      <title>Sergipe (SE)</title>
    </path>
    <path class="br-state" data-uf="SP" data-name="São Paulo" d="M 736.71,724.33 L 719.91,731.43 L 721.25,733.83 L 717.80,736.14 L 712.13,734.31 L 705.12,735.37 L 685.25,745.45 L 656.26,770.41 L 627.36,754.09 L 613.63,716.84 L 531.92,705.22 L 547.57,695.14 L 584.06,639.65 L 670.27,641.28 L 697.44,713.09 L 736.52,700.80 L 740.74,707.24 L 747.37,705.12 L 749.38,709.92 L 733.74,715.59 L 736.71,724.33 Z">
      <title>São Paulo (SP)</title>
    </path>
    <path class="br-state" data-uf="TO" data-name="Tocantins" d="M 710.41,401.64 L 691.97,427.85 L 699.75,468.17 L 624.19,473.55 L 593.56,464.24 L 589.72,430.73 L 602.30,391.46 L 628.32,341.73 L 622.94,336.06 L 631.49,316.67 L 638.78,314.75 L 652.13,286.62 L 638.40,280.95 L 643.49,276.35 L 669.02,284.12 L 672.29,303.32 L 664.80,327.33 L 680.26,345.95 L 692.74,343.07 L 694.08,353.92 L 686.21,355.17 L 680.26,370.92 L 691.59,388.10 L 696.20,398.18 L 710.41,401.64 Z">
      <title>Tocantins (TO)</title>
    </path>
  </g>
</svg>